<?xml version="1.0" encoding="UTF-8" standalone="no"?>
<!DOCTYPE svg PUBLIC "-//W3C//DTD SVG 1.1//EN"
 "http://www.w3.org/Graphics/SVG/1.1/DTD/svg11.dtd">
<!-- Generated by graphviz version 2.40.1 (20161225.0304)
 -->
<!-- Title: dependencies Pages: 1 -->
<svg width="776pt" height="284pt"
 viewBox="0.00 0.00 776.00 284.00" xmlns="http://www.w3.org/2000/svg" xmlns:xlink="http://www.w3.org/1999/xlink">
<g id="graph0" class="graph" transform="scale(1 1) rotate(0) translate(4 280)">
<title>dependencies</title>
<polygon fill="#ffffff" stroke="transparent" points="-4,4 -4,-280 772,-280 772,4 -4,4"/>
<text text-anchor="start" x="363.0091" y="-42.4" font-family="sans-serif" font-weight="bold" font-size="14.00" fill="#000000">Legend</text>
<polygon fill="#ffffb3" stroke="transparent" points="150,-10 150,-30 170,-30 170,-10 150,-10"/>
<text text-anchor="start" x="173.629" y="-15.4" font-family="sans-serif" font-size="14.00" fill="#000000"> &#160;Declarations</text>
<polygon fill="#8dd3c7" stroke="transparent" points="263,-10 263,-30 283,-30 283,-10 263,-10"/>
<text text-anchor="start" x="286.7251" y="-15.4" font-family="sans-serif" font-size="14.00" fill="#000000"> &#160;Module</text>
<polygon fill="#80b1d3" stroke="transparent" points="349,-10 349,-30 369,-30 369,-10 349,-10"/>
<text text-anchor="start" x="372.7812" y="-15.4" font-family="sans-serif" font-size="14.00" fill="#000000"> &#160;Bootstrap</text>
<polygon fill="#fdb462" stroke="transparent" points="446,-10 446,-30 466,-30 466,-10 446,-10"/>
<text text-anchor="start" x="469.6732" y="-15.4" font-family="sans-serif" font-size="14.00" fill="#000000"> &#160;Providers</text>
<polygon fill="#fb8072" stroke="transparent" points="542,-10 542,-30 562,-30 562,-10 542,-10"/>
<text text-anchor="start" x="565.7258" y="-15.4" font-family="sans-serif" font-size="14.00" fill="#000000"> &#160;Exports</text>
<g id="clust1" class="cluster">
<title>cluster_AppModule</title>
<polygon fill="none" stroke="#000000" stroke-dasharray="1,5" points="8,-70 8,-268 760,-268 760,-70 8,-70"/>
</g>
<g id="clust2" class="cluster">
<title>cluster_AppModule_declarations</title>
<polygon fill="none" stroke="#000000" points="172,-78 172,-130 752,-130 752,-78 172,-78"/>
</g>
<g id="clust9" class="cluster">
<title>cluster_AppModule_bootstrap</title>
<polygon fill="none" stroke="#000000" points="342,-208 342,-260 466,-260 466,-208 342,-208"/>
</g>
<g id="clust10" class="cluster">
<title>cluster_AppModule_providers</title>
<polygon fill="none" stroke="#000000" points="16,-78 16,-130 164,-130 164,-78 16,-78"/>
</g>
<!-- AppComponent -->
<g id="node1" class="node">
<title>AppComponent</title>
<polygon fill="#ffffb3" stroke="#000000" points="743.9399,-122 638.0601,-122 638.0601,-86 743.9399,-86 743.9399,-122"/>
<text text-anchor="middle" x="691" y="-99.8" font-family="Times,serif" font-size="14.00" fill="#000000">AppComponent</text>
</g>
<!-- AppModule -->
<g id="node5" class="node">
<title>AppModule</title>
<polygon fill="#8dd3c7" stroke="#000000" points="445.6571,-187 442.6571,-191 421.6571,-191 418.6571,-187 362.3429,-187 362.3429,-151 445.6571,-151 445.6571,-187"/>
<text text-anchor="middle" x="404" y="-164.8" font-family="Times,serif" font-size="14.00" fill="#000000">AppModule</text>
</g>
<!-- AppComponent&#45;&gt;AppModule -->
<g id="edge1" class="edge">
<title>AppComponent&#45;&gt;AppModule</title>
<path fill="none" stroke="#000000" d="M691,-122.2843C691,-143.3211 691,-175 691,-175 691,-175 455.7323,-175 455.7323,-175"/>
<polygon fill="#000000" stroke="#000000" points="455.7323,-171.5001 445.7323,-175 455.7322,-178.5001 455.7323,-171.5001"/>
</g>
<!-- AddStreetComponent -->
<g id="node2" class="node">
<title>AddStreetComponent</title>
<polygon fill="#ffffb3" stroke="#000000" points="620.0926,-122 481.9074,-122 481.9074,-86 620.0926,-86 620.0926,-122"/>
<text text-anchor="middle" x="551" y="-99.8" font-family="Times,serif" font-size="14.00" fill="#000000">AddStreetComponent</text>
</g>
<!-- AddStreetComponent&#45;&gt;AppModule -->
<g id="edge2" class="edge">
<title>AddStreetComponent&#45;&gt;AppModule</title>
<path fill="none" stroke="#000000" d="M551,-122.0225C551,-139.3734 551,-163 551,-163 551,-163 455.7311,-163 455.7311,-163"/>
<polygon fill="#000000" stroke="#000000" points="455.7311,-159.5001 445.7311,-163 455.7311,-166.5001 455.7311,-159.5001"/>
</g>
<!-- StreetsComponent -->
<g id="node3" class="node">
<title>StreetsComponent</title>
<polygon fill="#ffffb3" stroke="#000000" points="463.9314,-122 344.0686,-122 344.0686,-86 463.9314,-86 463.9314,-122"/>
<text text-anchor="middle" x="404" y="-99.8" font-family="Times,serif" font-size="14.00" fill="#000000">StreetsComponent</text>
</g>
<!-- StreetsComponent&#45;&gt;AppModule -->
<g id="edge3" class="edge">
<title>StreetsComponent&#45;&gt;AppModule</title>
<path fill="none" stroke="#000000" d="M404,-122.1061C404,-122.1061 404,-140.991 404,-140.991"/>
<polygon fill="#000000" stroke="#000000" points="400.5001,-140.9909 404,-150.991 407.5001,-140.991 400.5001,-140.9909"/>
</g>
<!-- DescriptionComponent -->
<g id="node4" class="node">
<title>DescriptionComponent</title>
<polygon fill="#ffffb3" stroke="#000000" points="326.1456,-122 179.8544,-122 179.8544,-86 326.1456,-86 326.1456,-122"/>
<text text-anchor="middle" x="253" y="-99.8" font-family="Times,serif" font-size="14.00" fill="#000000">DescriptionComponent</text>
</g>
<!-- DescriptionComponent&#45;&gt;AppModule -->
<g id="edge4" class="edge">
<title>DescriptionComponent&#45;&gt;AppModule</title>
<path fill="none" stroke="#000000" d="M253,-122.0225C253,-139.3734 253,-163 253,-163 253,-163 352.3389,-163 352.3389,-163"/>
<polygon fill="#000000" stroke="#000000" points="352.3389,-166.5001 362.3389,-163 352.3388,-159.5001 352.3389,-166.5001"/>
</g>
<!-- AppComponent  -->
<g id="node6" class="node">
<title>AppComponent </title>
<polygon fill="#80b1d3" stroke="#000000" points="458.439,-252 349.561,-252 349.561,-216 458.439,-216 458.439,-252"/>
<text text-anchor="middle" x="404" y="-229.8" font-family="Times,serif" font-size="14.00" fill="#000000">AppComponent </text>
</g>
<!-- AppModule&#45;&gt;AppComponent  -->
<g id="edge5" class="edge">
<title>AppModule&#45;&gt;AppComponent </title>
<path fill="none" stroke="#000000" stroke-dasharray="1,5" d="M404,-187.1061C404,-187.1061 404,-205.991 404,-205.991"/>
<polygon fill="#000000" stroke="#000000" points="400.5001,-205.9909 404,-215.991 407.5001,-205.991 400.5001,-205.9909"/>
</g>
<!-- StreetsService -->
<g id="node7" class="node">
<title>StreetsService</title>
<ellipse fill="#fdb462" stroke="#000000" cx="90" cy="-104" rx="66.0435" ry="18"/>
<text text-anchor="middle" x="90" y="-99.8" font-family="Times,serif" font-size="14.00" fill="#000000">StreetsService</text>
</g>
<!-- StreetsService&#45;&gt;AppModule -->
<g id="edge6" class="edge">
<title>StreetsService&#45;&gt;AppModule</title>
<path fill="none" stroke="#000000" d="M90,-122.2843C90,-143.3211 90,-175 90,-175 90,-175 352.3032,-175 352.3032,-175"/>
<polygon fill="#000000" stroke="#000000" points="352.3033,-178.5001 362.3032,-175 352.3032,-171.5001 352.3033,-178.5001"/>
</g>
</g>
</svg>
